<svg width="117" height="22" viewBox="0 0 117 22" fill="none" xmlns="http://www.w3.org/2000/svg">
<g clip-path="url(#clip0)">
<path fill-rule="evenodd" clip-rule="evenodd" d="M79.1956 14.4565C79.1956 16.9242 77.6646 18.3535 75.6308 18.3535C73.5666 18.3535 72.0316 16.9235 72.0316 14.4549V3.47463H68.3992V15.7075C68.3992 19.8199 71.6052 22 74.4567 22C76.3442 22 77.9826 21.285 79.1239 19.8541H79.1956V21.7864H82.8283V3.47417H79.1956V14.4565ZM62.6035 0H58.9692V17.314C58.9692 20.1786 60.8202 21.7869 63.3492 21.7869H65.8514V18.354H63.8885C62.9973 18.354 62.6065 17.9958 62.6065 16.995V7.12181H65.8553V3.44208H62.6058V0H62.6035ZM96.1286 5.58869C94.7735 4.30077 93.3126 3.4414 91.4596 3.4414C89.2521 3.4414 87.6491 4.44515 86.618 5.80227C85.616 7.0879 85.3383 8.2681 85.3383 12.7048C85.3383 17.1712 85.6194 18.3491 86.6212 19.6371C87.6541 20.9914 89.2606 21.9952 91.468 21.9952C93.3236 21.9952 94.994 21.1381 96.1389 19.8846V21.7798H99.7723V0.0252083H96.1389V5.58708L96.132 5.58869H96.1286ZM92.5638 18.3533C89.1406 18.3533 88.9665 15.5258 88.9665 12.7048C88.9665 9.91123 89.1408 7.0879 92.5633 7.0879C95.9483 7.0879 96.1282 10.09 96.1282 12.7002C96.1286 15.3425 95.9476 18.3491 92.5633 18.3491V18.3514L92.5638 18.3533ZM115.33 5.76515C114.332 4.65208 112.656 3.44208 109.842 3.44208C107.027 3.44208 105.353 4.65529 104.356 5.76492C102.964 7.30171 102.395 8.80298 102.395 12.7013C102.395 16.6322 102.964 18.1367 104.354 19.6735C105.35 20.7831 107.025 21.9995 109.84 21.9995C112.653 21.9995 114.328 20.7831 115.327 19.6735C116.716 18.1367 117.285 16.6325 117.285 12.7013C117.285 8.80321 116.714 7.2985 115.326 5.76171V5.76492L115.33 5.76515ZM112.764 17.0271C112.229 17.7776 111.09 18.3503 109.842 18.3503C108.596 18.3503 107.454 17.7774 106.92 17.0239C106.244 16.0598 106.03 15.3448 106.03 12.6981C106.03 10.0872 106.246 9.36902 106.922 8.40492C107.458 7.65325 108.599 7.08171 109.843 7.08171C111.091 7.08171 112.232 7.65348 112.765 8.40492C113.444 9.3681 113.656 10.0852 113.656 12.7286C113.656 15.3411 113.446 16.0577 112.768 17.0209L112.763 17.0271H112.764Z" fill="#A0BAAD"/>
<path fill-rule="evenodd" clip-rule="evenodd" d="M3.66791 0H0.0322266V17.3135C0.0322266 20.1786 1.8832 21.7864 4.41287 21.7864H6.9174V18.3535H4.9492C4.05913 18.3535 3.66768 17.996 3.66768 16.995V7.12181H6.91717V3.44208H3.66791V0ZM33.3507 18.354C30.3944 18.354 28.6474 16.6723 28.6474 12.738C28.6463 8.77158 30.3928 7.09133 33.3503 7.09133C34.8466 7.09133 36.1297 7.87623 37.0202 8.9854L39.6934 6.58625C38.1258 4.76254 35.9537 3.43979 33.2097 3.43979C29.0439 3.43979 25.0165 6.08667 25.0165 12.7348C25.0131 19.3536 29.04 22 33.2065 22C35.9503 22 38.1253 20.6747 39.6918 18.8531L37.0205 16.459C36.1292 17.5704 34.8466 18.3542 33.3505 18.3542L33.3507 18.354ZM49.9135 3.26562C47.9842 3.26562 46.3384 3.98383 45.1947 5.41842H45.1225V0H41.4735V21.6746H45.1193V10.835C45.1193 8.36 46.6544 6.92679 48.7262 6.92679C50.7657 6.92679 52.304 8.36 52.304 10.835V21.6732H55.9498V9.58192C55.9498 5.45279 52.73 3.26562 49.9055 3.26562H49.9124H49.9135ZM15.7105 3.44208C12.2165 3.44208 8.26313 5.73077 8.26313 12.7728C8.26336 20.2125 12.5754 22 16.2797 22C18.702 22 21.0191 21.1434 22.7997 19.069L20.1622 16.814C19.0945 17.9243 17.5982 18.5662 16.2093 18.5662C13.7155 18.5662 11.8988 17.0644 11.8988 14.0974H23.1555V11.0953C23.1555 6.41002 19.7003 3.44231 15.7082 3.44231L15.7105 3.44208ZM11.899 11.0953C11.9699 8.34075 13.5731 6.87752 15.7095 6.87752C17.8473 6.87752 19.4156 8.3419 19.5223 11.0965H11.899V11.0953Z" fill="#A0BAAD"/>
</g>
<defs>
<clipPath id="clip0">
<rect width="117" height="22" fill="white"/>
</clipPath>
</defs>
</svg>
